<?xml version="1.0" encoding="UTF-8"?>
<svg width="71px" height="71px" viewBox="0 0 71 71" version="1.1" xmlns="http://www.w3.org/2000/svg" xmlns:xlink="http://www.w3.org/1999/xlink">
    <!-- Generator: Sketch 41.2 (35397) - http://www.bohemiancoding.com/sketch -->
    <title>Fill 1</title>
    <desc>Created with Sketch.</desc>
    <defs></defs>
    <g id="Symbols" stroke="none" stroke-width="1" fill="none" fill-rule="evenodd">
        <g id="Screenshot---Masked" fill="#AF966D">
            <g id="Portable-Mode-Screen">
                <g id="Video-8-Column" transform="translate(0.000000, 0.336367)">
                    <g id="Video-Decoration">
                        <path d="M16.2116892,13.6887274 C16.5754554,13.3757049 17.1564469,13.2313667 17.6719261,13.3252735 C18.30981,13.4400484 18.7615007,13.8035023 19.0407904,14.259124 C19.2735318,14.63649 19.3459403,15.1529772 19.2683598,15.879885 C19.2166395,16.372026 19.0321704,16.8259086 18.6959883,17.1163239 C18.311534,17.4467366 17.7891588,17.5423824 17.4064285,17.5441214 C16.9081894,17.5441214 16.3565061,17.2206648 15.9737757,16.6937435 C15.6479378,16.2433389 15.4669167,15.6868545 15.6255256,15.0468973 C15.7548264,14.5251931 15.8789552,13.9739257 16.2116892,13.6887274 Z M11.8016704,15.6729423 C11.7740862,16.2276878 11.6844376,16.749392 11.7930503,17.2380549 C11.908559,17.7649762 12.0895801,18.2658122 12.3585257,18.7092607 C12.6240234,19.1492313 13.0360619,19.4779049 13.4481004,19.8274467 C13.8273827,20.1491643 14.210113,20.5126182 14.708352,20.7508631 C15.1531467,20.9630228 15.6479378,21.1508364 16.184105,21.2916965 C16.5737314,21.3942983 16.9926659,21.4325566 17.4081525,21.4325566 C17.9425957,21.4325566 18.5184152,21.3856032 19.0614785,21.2082238 C19.5769577,21.0412785 20.0717487,20.7439071 20.5406795,20.4308846 C20.9958183,20.1282961 21.3751006,19.7126718 21.7388668,19.2848744 C22.094013,18.86925 22.5060515,18.4588427 22.7318969,17.9353995 C22.9456742,17.4432586 22.9818784,16.8641669 23.0439428,16.2850753 C23.0991111,15.749459 23.1973797,15.2364498 23.1456594,14.758221 C23.087043,14.2278217 22.9353301,13.7269857 22.7646531,13.271364 C22.5819079,12.7792231 22.2164177,12.4088131 21.926784,12.0088399 C21.6250821,11.5897375 21.4285449,11.0715114 21.0389186,10.7584889 C20.6423961,10.4385103 20.1407091,10.2506968 19.6838463,10.0472321 C19.2183635,9.84202849 18.7011603,9.8559406 18.2080933,9.77942399 C17.9132875,9.73247061 17.6339978,9.59161048 17.335744,9.59161048 C16.8099208,9.59161048 16.3030617,9.63682484 15.8289589,9.7689899 C15.3307198,9.90811102 14.9014412,10.1759192 14.4756106,10.4489444 C14.04978,10.7202305 13.71877,11.0802064 13.3774159,11.4714846 C13.051578,11.8471116 12.8015964,12.2575189 12.567131,12.7322697 C12.3499057,13.1722402 12.1947447,13.6296009 12.065444,14.1478271 C11.9309711,14.6903994 11.8258065,15.1790624 11.8016704,15.6729423 Z M17.2236833,8.15518494 C17.6891662,8.15518494 18.152925,8.18474817 18.6184078,8.27343789 C19.0735466,8.35864957 19.4838611,8.58819942 19.9321038,8.75688377 C20.4303429,8.94295827 20.8716895,9.18642022 21.3130362,9.48379161 C21.7543829,9.78290201 22.25607,9.99680073 22.6232842,10.3863399 C22.9887744,10.772401 23.1766916,11.2923661 23.4542573,11.7497268 C23.7300989,12.2053485 24.0059406,12.64358 24.1783417,13.1513721 C24.3507427,13.6574251 24.4628034,14.1652172 24.5162477,14.6990945 C24.569692,15.2277548 24.6093443,15.751198 24.5352118,16.2833362 C24.4610794,16.8085185 24.390395,17.3458738 24.2076498,17.8484488 C24.0231807,18.3492848 23.6766546,18.7701262 23.3973649,19.2205308 C23.1146272,19.6761525 22.8801618,20.1665544 22.5129475,20.5421815 C22.1371132,20.9265036 21.6647344,21.1786606 21.2164916,21.4499468 C20.7941091,21.7038428 20.4044827,21.9368707 19.9958922,22.105555 C19.5545455,22.2881515 19.1511271,22.5629157 18.7028843,22.6498664 C18.2546416,22.7368171 17.7770907,22.5611767 17.2995398,22.5611767 C16.9306016,22.5611767 16.5495952,22.6324763 16.1427288,22.5803058 C15.7789626,22.5333525 15.366924,22.6203032 14.9652296,22.5298744 C14.4549225,22.4150995 14.0032318,22.1264232 13.5670571,21.9055684 C13.1101943,21.6725405 12.7067759,21.3629961 12.3395616,21.0273664 C11.9671754,20.6882586 11.584445,20.3387168 11.3103274,19.9091804 C11.0431057,19.490078 10.7655401,19.0361954 10.598311,18.5457934 C10.4397021,18.0797377 10.3035052,17.5632505 10.2397169,17.0432854 C10.1793765,16.5563614 10.1500683,16.0242232 10.1793765,15.4990409 C10.2052366,15.010378 10.3052292,14.4904128 10.4138419,13.9774037 C10.5293506,13.4261363 10.8138123,12.9374734 11.0086255,12.4540275 C11.2172308,11.9358013 11.4844524,11.4697456 11.7775342,11.0349921 C12.0844081,10.5758924 12.3671458,10.0994026 12.7567722,9.74290469 C13.1567426,9.37597275 13.6584297,9.1464229 14.1359806,8.8977439 C14.6049114,8.65080392 15.1031504,8.47342449 15.6358697,8.34821549 C16.1444528,8.22996254 16.668552,8.15518494 17.2236833,8.15518494 Z M10.3586736,6.75527869 C9.98801132,7.0804743 9.65527729,7.46305738 9.33116332,7.84390144 C9.01222138,8.21778944 8.8346483,8.70297434 8.56397865,9.12729375 C8.30020505,9.53944006 7.86747842,9.86985271 7.65197711,10.3289524 C7.44509585,10.772401 7.34855126,11.280193 7.18994229,11.7618999 C7.03650536,12.2262166 7.06236552,12.7427038 6.95892489,13.2400618 C6.85203624,13.7443758 6.66067107,14.2156486 6.61239878,14.7060506 C6.56067847,15.2173207 6.51585419,15.7181567 6.52275023,16.2120367 C6.53137029,16.7250458 6.63998295,17.2171867 6.70894337,17.7075887 C6.7796278,18.2136418 6.93306473,18.6831755 7.06753755,19.1596654 C7.20373438,19.6518063 7.38475548,20.1022109 7.5847407,20.5560936 C7.78989794,21.0204103 8.02608738,21.4395127 8.291585,21.8603541 C8.56225464,22.2864125 8.82602825,22.6898637 9.15703826,23.0654907 C9.48977229,23.4411178 9.75354589,23.8793493 10.1414483,24.1975888 C10.5259026,24.5123504 10.9310451,24.8149388 11.3672197,25.0688348 C11.7947743,25.3157748 12.2861173,25.4444619 12.7584962,25.6270583 C13.215359,25.8044377 13.6636017,26.0461607 14.1601167,26.1591966 C14.701456,26.2791886 15.2203832,26.3800514 15.7186222,26.4426559 C16.2616855,26.5104774 16.7892327,26.5296066 17.2995398,26.5296066 C17.827087,26.5296066 18.3425662,26.4670021 18.8477012,26.3974415 C19.3614564,26.3244029 19.8596954,26.1939769 20.3579344,26.0461607 C20.8458294,25.9018225 21.3544125,25.7818306 21.8371354,25.5627148 C22.2939982,25.3557721 22.6646605,24.9557989 23.1249713,24.6792957 C23.5611459,24.4149656 24.061109,24.2514983 24.4541833,23.9228246 C24.8438097,23.594151 25.2592962,23.2759114 25.6006503,22.8915893 C25.9402804,22.5107453 26.0730292,21.9681729 26.3592149,21.5403755 C26.6419527,21.1143171 26.8971062,20.6882586 27.1229516,20.2274199 C27.348797,19.7665812 27.5815384,19.3213937 27.7453194,18.8344697 C27.9091004,18.3475458 28.017713,17.8571439 28.1142576,17.3528298 C28.2108022,16.8485158 28.4883679,16.3633309 28.514228,15.8503218 C28.5400882,15.3373126 28.2918307,14.8295206 28.2418344,14.3182505 C28.1901141,13.8069803 28.3763072,13.2504959 28.2521785,12.7548769 C28.1280497,12.2592579 27.7332513,11.8436336 27.5418861,11.3706218 C27.350521,10.895871 27.0919194,10.4698125 26.8384898,10.026364 C26.5850603,9.58291541 26.3333548,9.15511797 26.0247569,8.74992772 C25.714435,8.34299845 25.4747976,7.88215974 25.1144794,7.52218385 C24.7541612,7.16046894 24.4334952,6.73441052 24.0283528,6.42660505 C23.6232103,6.11879957 23.1870356,5.81968917 22.7422409,5.57274919 C22.2991702,5.3258092 21.761279,5.25798766 21.2854521,5.07886922 C20.8475534,4.9154019 20.447583,4.6162915 20.0027883,4.50499461 C19.5510975,4.39369771 19.0718226,4.36935152 18.6166838,4.31196406 C18.156373,4.25457659 17.6857182,4.22501336 17.2236833,4.22501336 C16.7202723,4.22501336 16.2220333,4.31196406 15.7410343,4.37630757 C15.2445193,4.4423901 14.7721404,4.60585742 14.3032096,4.73802248 C13.8222106,4.87366557 13.3084555,4.92235796 12.8619368,5.12408358 C12.408522,5.32754822 12.0223437,5.67013397 11.6068572,5.93794212 C11.1913706,6.20575027 10.7327839,6.42660505 10.3586736,6.75527869 Z M69.8111753,13.0052949 C69.5732619,12.5914096 69.2732841,12.1670902 68.9043458,11.8349385 C68.5509237,11.518438 68.0906129,11.3236684 67.6751263,11.1149867 C67.2544678,10.904566 66.7838129,10.8228324 66.3355702,10.7028404 C65.8752594,10.5776314 65.4201206,10.4767686 64.9701539,10.4245982 C64.4770869,10.3672107 64.004708,10.2506968 63.5771534,10.2506968 C63.182355,10.2506968 62.7772125,10.3324304 62.3703461,10.3672107 C61.9686516,10.401991 61.5824733,10.5602413 61.1911229,10.6263238 C60.8152886,10.6889283 60.1980928,10.7619669 59.5050406,10.7932691 C58.9757694,10.8158763 58.3913298,10.8471786 57.8224064,10.8593517 C57.2224507,10.8715248 56.6328391,10.6228458 56.1363241,10.6332798 C55.4708561,10.6454529 55.1553621,11.0019508 54.8881405,11.2158495 C54.5243743,11.5062649 54.472654,11.8575457 54.3950735,12.39664 C54.3209411,12.9183442 54.2623247,13.4556995 54.5519585,13.8469777 C54.8433163,14.2382558 55.3605194,14.4052012 55.8777225,14.4799788 C56.2725209,14.5373662 56.7880001,14.6903994 57.425884,14.6903994 C57.8810227,14.6903994 58.3758137,14.5286711 58.8826728,14.5008469 C59.3722918,14.4747617 59.8825989,14.6138828 60.3549778,14.5686685 C60.885973,14.516498 61.3945561,14.4747617 61.8134907,14.4034621 C62.3962062,14.3060774 62.9944378,14.2260827 63.5806014,14.2260827 C64.0840125,14.2260827 64.4701908,14.2782531 64.8063729,14.3547697 C65.3097839,14.4678057 65.6011417,14.6625752 65.8838794,14.879952 C66.2717818,15.1755843 66.468319,16.1529102 65.8338831,16.6398341 C65.5770056,16.8363427 64.9736019,16.9250324 64.327098,16.9824199 C63.835755,17.0258952 63.2926917,16.9702468 62.8030727,16.9737248 C62.0772643,16.9772028 61.4686886,17.1424091 61.2911155,17.1493652 C60.8480448,17.1684944 60.3256696,16.996332 59.7860543,17.0085051 C59.2947113,17.0189392 58.7844042,17.0328513 58.2861652,17.0380683 C57.756894,17.0432854 57.2431389,16.9806808 56.7880001,16.9806808 C56.1070159,16.9824199 55.5605046,17.0554584 55.289835,17.0450244 C54.5847147,17.0206782 54.3899015,17.0485024 53.1193058,17.0485024 C52.6383068,17.0485024 52.4331496,16.6502682 52.2262683,16.3389847 C51.9780108,15.9616187 51.7090652,15.5564284 51.7366493,15.259057 C51.7573375,15.0173341 51.7625095,14.7964793 51.7607855,14.5808416 C51.7573375,14.0904396 51.7625095,13.6104718 51.8262979,13.1670232 C51.8969823,12.6835773 52.2917807,12.1097027 52.2504045,11.4853967 C52.2159243,10.9602145 51.9745628,10.3950349 51.683205,9.8437675 C51.4487396,9.40205795 50.9556726,9.11338164 50.4608816,8.69254025 C50.0005708,8.30300112 49.5092278,8.01084678 48.9144442,7.80390411 C48.3403487,7.60565652 47.7714252,7.29263401 47.1490574,7.29263401 C46.9525202,7.29263401 46.7663271,7.45610132 46.5732379,7.47696949 C46.1594754,7.52392286 45.6595124,7.52913991 45.1474813,7.73782158 C44.7354427,7.90650594 44.3130602,8.15344592 43.8941256,8.48559759 C43.5424275,8.76383983 43.1734892,9.09077445 42.8493753,9.51683288 C42.4907811,9.98810566 42.306312,10.532417 42.1821832,11.1115087 C42.0701225,11.6401689 42.1752872,12.2140435 42.1770112,12.8383496 C42.1770112,13.3809219 42.1925273,13.9530575 42.2218355,14.5704075 C42.2476956,15.0781996 42.2614877,15.6590302 42.2752798,16.2642071 C42.2873479,16.7198288 42.0563304,17.1580603 41.8097969,17.4136953 C41.6304999,17.6015088 41.2684577,17.6328111 40.7529785,17.6154209 C40.3202519,17.6032479 39.9099374,17.6502012 39.7702925,17.4502146 C39.6961601,17.3423958 39.7340883,17.0711096 39.680644,16.4868009 C39.6306477,15.9564016 39.7478804,15.1808014 39.8961453,14.3582478 C39.9995859,13.7826342 40.175435,13.1774573 40.2323273,12.5531513 C40.2892197,11.9444964 40.1150946,11.3445366 40.013378,10.7445767 C39.9116614,10.1428779 39.9099374,9.59856653 39.7134002,9.16381304 C39.4651427,8.61254561 39.189301,8.13083874 38.8358789,7.79520904 C38.4255644,7.4039309 37.8514689,7.33263133 37.3687459,7.14829585 C36.8532668,6.95178727 36.3498557,6.84744643 35.8429966,6.7813639 C35.3999259,6.72397644 35.0223676,6.65093785 34.6568774,6.65093785 C34.098298,6.65093785 33.6104031,6.73788855 33.1380242,6.87527065 C32.617373,7.02656487 32.0536216,7.06656219 31.6467551,7.37784569 C31.2381646,7.68912919 31.0623156,8.23517958 30.7795778,8.69949631 C30.5209763,9.12381572 30.0606655,9.50118175 29.9175726,10.0454931 C29.7917198,10.523722 29.991705,11.1010746 29.989981,11.7097295 C29.988257,12.2036095 30.0606655,12.7409648 30.0882496,13.3391856 C30.1123858,13.8139364 30.1089377,14.3321626 30.1210058,14.8695179 C30.1313499,15.3651369 30.0072211,15.881624 29.983085,16.3981112 C29.9589488,16.9059032 29.8037879,17.3980442 29.7227594,17.8971412 C29.6434549,18.3910212 29.5244982,18.8501209 29.3796813,19.3161766 C29.2348644,19.7874494 29.2072803,20.2987195 28.993503,20.7456461 C28.7831737,21.1821386 28.3987193,21.5195073 28.1194296,21.9368707 C27.853932,22.3368439 27.6142946,22.7559463 27.2832846,23.1402683 C26.9729627,23.5002442 26.6385046,23.849786 26.2712904,24.2010669 C25.9264883,24.5280015 25.5954783,24.8897164 25.2006799,25.211434 C24.8644978,25.4844592 24.4748715,25.7957427 23.9869765,26.0305096 C23.576662,26.2287572 23.0749749,26.2913617 22.583632,26.454829 C22.1388373,26.6043842 21.7026626,26.8513242 21.2113196,26.9678381 C20.7458368,27.079135 20.2475977,27.075657 19.7579788,27.1521736 C19.2787039,27.2269512 18.8011529,27.3156409 18.313258,27.3556382 C17.825363,27.3956355 17.339192,27.5608419 16.8547451,27.5608419 C16.3668501,27.5608419 15.9013673,27.3208579 15.4445045,27.2825996 C14.9548855,27.2408633 14.4790586,27.2756436 14.0308159,27.1904319 C13.542921,27.0982641 13.0360619,27.1347834 12.6085073,26.9939233 C12.1309564,26.837412 11.7258139,26.5365626 11.3344635,26.3244029 C10.8879448,26.08268 10.5121105,25.7835696 10.1948926,25.4722861 C9.83974642,25.1279613 9.36909155,25.0062303 8.87602455,25.0062303 C8.36744146,25.0062303 7.95712696,25.2375192 7.60025679,25.6079292 C7.23821459,25.9852952 7.11408583,26.3904855 7.12098187,26.8808874 C7.12960193,27.3695503 7.28821089,27.7503944 7.66404518,28.1155873 C7.99850321,28.4425219 8.33296125,28.7572835 8.73810371,29.0337867 C9.12083404,29.2981168 9.46218812,29.6511367 9.90353481,29.8685134 C10.3207453,30.0737171 10.758644,30.2771817 11.2224028,30.440649 C11.6603015,30.5954212 12.1464725,30.6354186 12.6240234,30.7484545 C13.0757141,30.8580124 13.5256808,31.0475649 14.0101278,31.1188644 C14.4721626,31.186686 14.9497135,31.2458125 15.4376085,31.2805927 C15.9048153,31.313634 16.3840902,31.315373 16.8719852,31.315373 C17.4133245,31.315373 17.9477678,31.1727739 18.483935,31.1345156 C19.0252743,31.0962573 19.5683376,31.1171254 20.0976088,31.0406088 C20.6389481,30.9623532 21.1768394,30.8945316 21.6957666,30.7814957 C22.2336578,30.6632428 22.7681011,30.5519459 23.2732362,30.3989127 C23.8042314,30.2354454 24.3490187,30.1293655 24.8317416,29.9311179 C25.3523928,29.7172192 25.8609759,29.4876693 26.3126667,29.2337733 C26.8109057,28.9555311 27.0919194,28.4007856 27.4884418,28.080807 C27.8746202,27.7660455 28.4556117,27.701702 28.8038618,27.3799844 C29.169352,27.0443547 29.4813979,26.6548156 29.8055119,26.3104908 C30.145142,25.9487759 30.312371,25.4479399 30.6071768,25.0757909 C30.9123266,24.6862518 31.295057,24.3680122 31.5536585,23.9663 C31.8191562,23.5524147 32.1467181,23.1715706 32.3639435,22.7420341 C32.5846168,22.3055416 32.784602,21.848181 32.9570031,21.3942983 C33.1294041,20.9404157 33.2276727,20.4517527 33.3535255,19.9770019 C33.4759302,19.5109462 33.4776542,19.0118492 33.5552347,18.5231862 C33.6535033,17.9214874 33.8465925,17.3354397 33.8776247,16.751131 C33.9121049,16.1355201 33.7965962,15.5286042 33.7879761,14.9529906 C33.7759081,14.3182505 33.8259044,13.7130736 33.8000442,13.1583281 C33.7534959,12.1931754 33.7741841,11.5793034 33.8448685,11.280193 C34.0138215,10.6454529 34.2431149,10.1480949 35.0585719,10.1759192 C35.7895523,10.2020044 36.0050536,10.5898045 36.1033222,10.7306646 C36.224003,10.901088 36.3291676,11.0471652 36.399852,11.4558335 C36.4929486,12.0036229 36.4050241,12.8679128 36.2550351,13.6956835 C36.1653866,14.1947805 36.1567665,14.7321358 36.0964262,15.2729691 C36.0378098,15.8033684 35.9722974,16.3128995 36.0205697,16.8346037 C36.068842,17.3458738 36.067118,17.874534 36.2050388,18.3840651 C36.3412357,18.8883792 36.5032927,19.3857372 36.8084425,19.8170126 C37.0929042,20.2204639 37.3928821,20.7091268 37.8876731,20.9891081 C38.2910915,21.2169189 38.8289828,21.35604 39.4099743,21.4673369 C39.8633891,21.5560266 40.3961083,21.5177683 40.9788239,21.5177683 C41.4805109,21.5177683 41.9184096,21.5195073 42.2925199,21.4412517 C42.7683468,21.3403889 43.1665932,21.1595314 43.5165673,20.9421547 C43.8768855,20.7178219 44.119971,20.3474119 44.445809,20.0100432 C44.769923,19.6709355 45.2009256,19.3909542 45.4215989,18.9683738 C45.6371002,18.5544885 45.6129641,18.0327843 45.7181287,17.5649895 C45.8198453,17.1093679 46.1180992,16.6520072 46.1060311,16.1703003 C46.090515,15.504258 46.0577588,14.8747349 46.0336226,14.3721599 C46.0112105,13.9095822 45.6681324,13.4956968 45.6629604,13.1270259 C45.6543403,12.5461952 45.7112327,12.0731834 45.762953,11.8418946 C45.8629456,11.4140971 46.3042923,11.0575993 46.9783804,11.0558602 C47.5300638,11.0541212 47.9972706,11.271498 48.1110553,11.5810425 C48.1438115,11.6697322 48.2162199,11.9097161 48.1386395,12.7200966 C48.0403709,13.7374198 48.0800231,13.8226315 47.9886505,14.9216883 C47.9524463,15.3373126 48.0369228,15.8903191 48.067955,16.500713 C48.0938152,16.996332 48.0334748,17.5510774 48.2162199,18.0745206 C48.3817249,18.5457934 48.6954948,18.9805469 49.0678811,19.4013883 C49.386823,19.7596252 49.8609259,20.1613374 50.5643222,20.4395796 C51.0522172,20.6308712 51.6418288,20.6986927 52.3624652,20.7143438 C52.8779443,20.7265169 53.326187,20.7543412 53.7244334,20.7647753 C54.2554287,20.7804264 54.6933273,20.8917233 55.0829537,20.9038964 C56.2190766,20.9438937 56.5966349,20.860421 57.3586476,20.860421 C57.756894,20.860421 58.1947926,20.7856434 58.7171678,20.7717313 C59.1171383,20.7612972 59.572277,20.9508497 60.0860322,20.9317206 C60.4946226,20.9160695 60.9497614,20.9908471 61.4531725,20.9699789 C61.9117593,20.9491107 62.3462099,20.7404291 62.7737645,20.728256 C63.2564874,20.7143438 63.7512785,20.7873824 64.2408974,20.7595582 C64.7322404,20.733473 65.2356515,20.7578192 65.7114784,20.6917367 C66.2079934,20.6221761 66.7200245,20.5595716 67.1734393,20.4187115 C67.6527142,20.2708953 68.106129,20.0013481 68.5078234,19.740496 C68.9129659,19.4761659 69.1491553,19.0135882 69.4405131,18.5979638 C69.7008387,18.2258149 69.9697843,17.8327977 70.1163252,17.3110935 C70.2370059,16.8832961 70.3318265,16.4033282 70.3611347,15.8590168 C70.3869948,15.3494857 70.2818302,14.878213 70.1852856,14.4208523 C70.081845,13.9356674 70.0508128,13.4209192 69.8111753,13.0052949 Z M25.5265179,35.172506 C25.2868804,34.7864449 25.0196588,34.4090789 24.6834767,34.0699712 C24.3645348,33.7447755 24.0576609,33.3708875 23.6525185,33.1152525 C23.2732362,32.8752686 22.8180974,32.7274524 22.3612346,32.5726801 C21.9905724,32.4457321 21.5509497,32.4666003 21.0440906,32.4126908 C20.6492922,32.3709545 20.2200136,32.3813886 19.7200505,32.3813886 C19.4528289,32.3813886 18.9183857,32.4144299 18.30981,32.4387761 C17.8477751,32.4579052 17.335744,32.2231383 16.8840533,32.2422675 C16.1479008,32.2753087 15.5531172,32.5657241 15.4720887,32.5657241 C14.9893658,32.5657241 14.4669906,32.5361608 13.9308233,32.5170317 C13.4325843,32.4979025 12.9308972,32.2440065 12.4102461,32.1935751 C11.903387,32.1448827 11.3723917,32.2283554 10.8672567,32.1396657 C10.3569496,32.0492369 9.88112267,31.812731 9.39839973,31.6683929 C8.89498867,31.5188377 8.3570974,31.4718843 7.91230269,31.2475515 C7.4381998,31.0110456 7.10546578,30.5849872 6.7313555,30.2510965 C6.64343097,30.1711018 6.12450381,29.6285295 5.58316452,28.9781382 C5.20043419,28.5207776 4.80908381,28.0425487 4.58841046,27.5904051 C4.4625577,27.3365091 4.43497353,26.7435053 4.78667167,26.2635374 C5.08492549,25.8548692 5.32973498,25.5592368 5.5314442,25.2757775 C5.76763364,24.9436258 5.82107797,24.5314795 6.11760777,24.1749817 C6.62274284,23.5263294 6.82790009,23.0237544 6.6813592,22.481182 C6.67618717,22.4603139 6.35034919,21.5195073 6.26759668,21.3751692 C6.04692334,20.983891 5.6797091,20.603047 5.51765212,20.1178621 C5.37111123,19.6813695 5.42627956,19.1544483 5.32973498,18.6623074 C5.24008643,18.2032077 5.16595398,17.7249788 5.12112971,17.2328379 C5.07630543,16.7598261 5.1194057,16.2781192 5.11768169,15.7877173 C5.11595767,15.3094884 5.05561731,14.8260425 5.09526955,14.3408576 C5.13319778,13.8608898 5.10733762,13.3670098 5.1866421,12.89052 C5.2676706,12.4122911 5.58488853,11.9897107 5.70729327,11.527133 C5.83314604,11.0558602 5.77452968,10.530678 5.94693073,10.0889685 C6.11243574,9.66117104 6.30897293,9.18989825 6.5658505,8.72905955 C6.79341988,8.31691324 7.01926526,7.84911848 7.33303516,7.44045019 C7.62266893,7.06134515 8.18124833,6.90483389 8.55191058,6.55181405 C8.89671268,6.22314041 9.19324248,5.83186227 9.61562505,5.54492496 C10.0069754,5.27711681 10.3345374,4.83888529 10.8000203,4.61976953 C11.2258509,4.41978292 11.7102978,4.24762054 12.2033648,4.09806534 C12.7033278,3.94677112 13.1963948,3.77808677 13.4256882,3.34507229 C13.6549816,2.91553584 13.5808492,2.3886146 13.4308603,1.88430055 C13.3084555,1.47737128 13.1550186,1.10348328 12.8360766,0.865238362 C12.5188587,0.626993447 12.1188883,0.500045427 11.6982297,0.500045427 C11.5137606,0.500045427 11.3206714,0.496567399 11.1430983,0.550476833 C10.6465833,0.701771048 10.1776525,0.910452725 9.71389365,1.10870032 C9.23979077,1.31042594 8.85188841,1.66344578 8.41054172,1.91386379 C7.964023,2.16775983 7.54164043,2.42687291 7.13304995,2.72946134 C6.72101144,3.03378879 6.32966106,3.34159426 5.95727479,3.69287508 C5.58661254,4.0441559 5.18491809,4.35543941 4.85390808,4.75019558 C4.5280701,5.14147372 4.11085956,5.47362539 3.82467382,5.90663987 C3.54710813,6.32922026 3.49883583,6.89613882 3.25919838,7.35871654 C3.02818097,7.80912116 2.68510288,8.20735536 2.49201371,8.69427927 C2.3092686,9.15511797 2.16617573,9.6316078 2.01963483,10.1080976 C1.87136993,10.5828484 1.68000477,11.0471652 1.5696681,11.5323501 C1.46105544,12.017535 1.54725596,12.5357611 1.47657153,13.0279021 C1.40416309,13.520043 1.19555782,13.9947939 1.16280162,14.4904128 C1.13004542,14.9877708 1.05591297,15.4886069 1.06453302,15.9842258 C1.07315308,16.4833229 1.32658262,16.9632907 1.37830293,17.4571707 C1.43002325,17.9527897 1.49208762,18.4344965 1.58863221,18.9214204 C1.6851768,19.4100834 1.75586123,19.8935293 1.89723009,20.3700191 C2.03859895,20.8465089 2.21789604,21.2934355 2.40581318,21.7525352 C2.7695794,22.4411847 1.97308655,22.9959302 1.7834454,23.2880845 C1.5696681,23.6219752 1.4713995,24.1662866 1.20417787,24.6479935 C0.971436456,25.0618788 0.502505603,25.4253327 0.395616953,25.9070396 C0.287004292,26.3922245 0.500781593,26.8930605 0.533537792,27.3452041 C0.569742012,27.82865 0.712834883,28.2512304 0.867995827,28.6894619 C1.0283288,29.1398665 1.20417787,29.5554909 1.44726335,29.9537251 C1.69724487,30.3676104 1.87654196,30.818015 2.16617573,31.1692959 C2.48684168,31.557096 2.73854721,31.9866324 3.04542108,32.2909599 C3.45401156,32.6996282 3.81605377,33.0387359 4.06086325,33.2787198 C4.43324952,33.6126105 4.9401086,33.7882509 5.36076716,34.05432 C5.78142572,34.3203892 6.15036397,34.7047113 6.60722675,34.9099149 C7.0589175,35.1133795 7.55888054,35.2333715 8.03470743,35.3846657 C8.50881032,35.5359599 8.9984293,35.666386 9.48287625,35.7724658 C9.97077121,35.8785457 10.4759063,35.913326 10.9638013,35.9828865 C11.4637643,36.0541861 11.9654514,36.043752 12.4533463,36.0837493 C12.9602054,36.1254857 13.4532724,36.2819969 13.9342713,36.2993871 C14.4531985,36.3167772 14.9548855,36.2054803 15.4272644,36.2054803 C15.6496618,36.2054803 17.0461103,36.2646068 17.6219298,36.2280875 C17.9753519,36.2072193 18.6718522,36.0976615 19.3890405,36.0750543 C20.0441645,36.0559251 20.7475608,35.9411502 21.1820114,36.0976615 C21.6268061,36.2593898 21.8319634,36.7080554 22.0698768,37.0123828 C22.4026109,37.4401802 22.6250082,37.8418925 22.6456963,38.1010056 C22.6853486,38.5688003 22.8370615,39.0139879 22.7905132,39.401788 C22.7318969,39.8730608 22.4957074,40.278251 22.3284784,40.6277929 C22.1267692,41.0468952 21.8336874,41.3633958 21.5061254,41.5964236 C21.1509792,41.8485807 20.7182526,42.135518 20.1993255,42.3181144 C19.7579788,42.4746257 19.2735318,42.6607002 18.7649487,42.759824 C18.2873978,42.8537307 17.7788147,42.9424205 17.2805757,42.9824178 C16.7788886,43.0224151 16.2616855,43.0450223 15.7772385,43.0258931 C15.0100539,42.9963299 14.1463246,42.9024231 13.6205014,42.8693819 C13.1360545,42.8398186 12.6860877,42.8972061 12.3499057,43.2137066 C12.0188957,43.5232511 11.7706382,43.9666997 11.7189179,44.4484066 C11.6620255,44.9561986 11.8895949,45.4170373 12.2050888,45.8170105 C12.5223067,46.2152447 12.9188292,46.5421794 13.4205162,46.5995668 C13.8170386,46.6430422 14.211837,46.6847785 14.6031874,46.7073857 C15.0031578,46.7317319 15.4014043,46.7282539 15.7910306,46.7282539 C16.3047858,46.7282539 16.8081968,46.6447812 17.3064358,46.6047839 C17.816743,46.5647866 18.3322221,46.5891328 18.8270131,46.5056601 C19.3287002,46.4204484 19.8459033,46.376973 20.3337983,46.248286 C20.8234172,46.119599 21.3302763,46.001346 21.8095513,45.8274446 C22.2819301,45.6552822 22.7370689,45.3961692 23.2008277,45.1805314 C23.6335543,44.9770668 23.9335322,44.5649205 24.2886783,44.251898 C24.6403765,43.9440925 25.0006947,43.6449821 25.2713643,43.2432699 C25.5299659,42.8606868 25.7678793,42.4485405 25.9489004,41.9911798 C26.1178535,41.5633824 26.1833659,41.0903706 26.2799105,40.6069247 C26.369559,40.1547811 26.5816123,39.6974204 26.6040244,39.2070184 C26.6247125,38.7444407 26.6488487,38.2522998 26.6074724,37.7636368 C26.5695442,37.3288833 26.376455,36.8628276 26.21095,36.3950328 C26.0609611,35.9724524 25.7833954,35.5829133 25.5265179,35.172506 Z M21.8836837,57.1327745 C21.5612937,56.8840955 21.106155,56.7971448 20.6786004,56.7971448 C20.0079603,56.7971448 19.3562843,57.3605853 19.1028548,57.8040339 C18.8494252,58.2457434 18.5770316,58.7604915 18.7097804,59.2526325 C18.7821888,59.5273967 19.0063102,60.0751861 18.9925181,60.7429675 C18.9838981,61.2403255 18.975278,61.7846368 18.9494178,62.2785168 C18.9132136,62.9776004 18.9390738,63.5740822 18.9390738,63.8053711 C18.9390738,64.4818475 18.5580675,65.038332 18.3891144,65.5200389 C18.154649,66.1808642 17.9029435,66.6017056 17.2805757,66.6017056 C16.5995915,66.6017056 16.2065172,65.9965287 16.2375493,64.9722495 C16.2616855,64.1618689 16.2840976,63.4714804 16.2892697,62.798482 C16.2944417,62.2089563 16.513391,61.6402987 16.5306311,61.0420779 C16.5478712,60.4890714 16.4220185,59.9047627 16.4685668,59.2717617 C16.4927029,58.9500441 16.6237277,58.5292027 16.6651039,58.0353227 C16.7099282,57.4910113 16.7409604,56.9797412 16.7788886,56.5015124 C16.8219889,55.950245 16.8909493,55.4424529 16.9237055,54.9729191 C16.9616338,54.4077396 16.9581857,53.8964695 16.9805979,53.4391088 C17.009906,52.847844 16.8823293,52.341791 16.8840533,51.9052985 C16.8857773,51.2618633 16.8702612,50.7888515 16.8081968,50.3975734 C16.7013082,49.7245749 16.5426992,49.4150305 16.2289293,49.0933129 C15.7479304,48.5976939 15.2772755,48.2620642 14.7135241,48.0951189 C14.0997763,47.9142614 13.4756845,47.74036 12.8757289,47.74036 C12.6964318,47.74036 12.4878265,47.990778 12.0982002,47.9959951 C11.8033944,47.9959951 11.415492,47.6829725 11.0379337,47.3786451 C10.760368,47.1560513 10.4690102,46.869114 10.2397169,46.5056601 C9.92422293,46.001346 9.82250631,45.4187763 9.7880261,44.8518578 C9.74837386,44.255376 9.68286146,43.6119408 9.89491475,43.1006707 C10.1362762,42.5250571 10.6517554,42.1303009 11.1310303,41.8816219 C11.5258287,41.6764183 11.9585553,41.6085967 12.4240381,41.523385 C12.8446967,41.4451294 13.2739753,41.1807993 13.7584223,41.1599311 C14.1859769,41.142541 14.6445637,41.147758 15.1255626,41.147758 C15.6134575,41.146019 16.1030765,41.1912334 16.6030396,41.1773213 C17.0874865,41.1651482 17.5719335,41.1199338 18.0718965,41.0695024 C18.5511714,41.024288 19.0700986,41.1721042 19.5666136,41.0712414 C20.0631286,40.9703786 20.3665545,40.5008448 20.6458442,40.0747864 C20.9268579,39.650467 21.2837281,39.1791942 21.1837354,38.6783582 C21.0940869,38.2262146 20.5992959,37.9357992 20.1613972,37.664513 C19.799355,37.4419193 19.3804205,37.3636636 18.8477012,37.3549686 C18.2546416,37.3427955 17.6339978,37.3758367 16.9926659,37.4401802 C16.3668501,37.5010457 15.7237942,37.4419193 15.1152185,37.4436583 C14.6049114,37.4436583 14.0842602,37.3341004 13.5687811,37.3514905 C13.055026,37.3688807 12.5292028,37.3914878 12.0188957,37.4575704 C11.5103126,37.5253919 11.0310377,37.786244 10.5345226,37.9340602 C10.0500757,38.0783984 9.50011635,38.1201347 9.03635753,38.3722917 C8.59673485,38.6122757 8.19504041,39.0105099 7.82093013,39.4087441 C7.47612804,39.775676 7.15373807,40.2156465 6.88306843,40.6851803 C6.62963888,41.1268899 6.45723784,41.639899 6.2865608,42.1476911 C6.12105579,42.638093 6.06071542,43.1650142 5.98658297,43.6901965 C5.91417453,44.2049446 5.75901359,44.7318658 5.78659776,45.2605261 C5.81418192,45.7804913 6.00899511,46.2882833 6.14346793,46.8012925 C6.27621673,47.3003895 6.37276132,47.8325277 6.61929482,48.3055395 C6.8623803,48.7698563 7.17959823,49.2480851 7.54164043,49.7002288 C7.87437446,50.1158531 8.36054542,50.3923563 8.84326835,50.7140739 C9.27082296,50.9992722 9.68286146,51.4322867 10.263853,51.5853199 C10.7482999,51.7122679 11.3206714,51.6896607 11.9326952,51.6896607 C12.9360693,51.6514024 13.3739679,51.599232 13.3567278,52.8895804 C13.3515558,53.2234711 13.1929468,53.7729995 13.1395025,54.4146956 C13.0981262,54.8877074 13.0257178,55.4111506 12.9791695,55.9380719 C12.9326212,56.4597761 12.9567574,56.9901753 12.9205532,57.4684042 C12.8722809,58.0892322 12.894693,58.6283265 12.896417,58.9917804 C12.899865,59.682169 12.891245,60.308214 12.8602128,60.8994787 C12.8274566,61.5463919 12.8015964,62.1550468 12.7964244,62.7915259 C12.7912524,63.4019198 12.7533241,64.0957864 12.730912,64.8679086 C12.7205679,65.2365796 12.5757511,65.6991573 12.6188513,66.2069494 C12.6550555,66.6260517 12.7136719,67.0834124 12.8636608,67.530339 C12.9998576,67.9337903 13.2791473,68.2868101 13.5618851,68.6659151 C13.8291067,69.022413 14.0911563,69.4154302 14.4773346,69.6832383 C14.8462729,69.9388734 15.2669314,70.1579891 15.7117261,70.3005883 C16.1375567,70.4362314 16.6047636,70.4988359 17.0719704,70.4988359 C17.5271092,70.4988359 17.985696,70.514487 18.4029065,70.4310143 C18.8528733,70.3388466 19.306288,70.2118986 19.6838463,70.0258241 C20.0976088,69.8206204 20.4717191,69.518032 20.7613529,69.2067485 C21.0940869,68.8502506 21.4044088,68.4450604 21.6509423,68.020741 C21.8940278,67.6051166 22.1302172,67.149495 22.2871022,66.6747441 C22.4370911,66.2208615 22.3508905,65.6939403 22.419851,65.1931042 C22.4836394,64.7235705 22.5457037,64.2436026 22.5353597,63.7375495 C22.5284636,63.3236642 22.6405243,62.8210892 22.6870726,62.2889509 C22.7232768,61.8663705 22.5750119,61.4003148 22.593976,60.9220859 C22.6094921,60.4803764 22.7956853,60.0264937 22.757757,59.562177 C22.7232768,59.1169894 22.6474203,58.6631068 22.5284636,58.2161802 C22.4164029,57.8005558 22.2060737,57.3831925 21.8836837,57.1327745 Z" id="Fill-1"></path>
                    </g>
                </g>
            </g>
        </g>
    </g>
</svg>